<svg xmlns="http://www.w3.org/2000/svg" xmlns:xlink="http://www.w3.org/1999/xlink" width="1080" zoomAndPan="magnify" viewBox="0 0 810 359.999987" height="480" preserveAspectRatio="xMidYMid meet" version="1.0"><defs><g/></defs><g fill="#000000" fill-opacity="1"><g transform="translate(84.712427, 213.749983)"><g><path d="M 17.671875 -8.59375 L 54.203125 -8.59375 L 54.203125 0 L 8.109375 0 L 8.109375 -71.78125 L 17.671875 -71.78125 Z M 17.671875 -8.59375 "/></g></g></g><g fill="#000000" fill-opacity="1"><g transform="translate(181.616708, 213.749983)"><g><path d="M 37.3125 0 L 27.59375 0 L 27.59375 -28.90625 L 0.484375 -71.78125 L 11.8125 -71.78125 L 32.421875 -37.3125 L 52.984375 -71.78125 L 64.40625 -71.78125 L 37.3125 -28.90625 Z M 37.3125 0 "/></g></g></g><g fill="#000000" fill-opacity="1"><g transform="translate(301.908958, 213.749983)"><g><path d="M 17.828125 0 L 8.109375 0 L 8.109375 -71.78125 L 57.8125 -71.78125 L 57.8125 -63.1875 L 17.828125 -63.1875 L 17.828125 -41.21875 L 52.984375 -41.21875 L 52.984375 -32.625 L 17.828125 -32.625 Z M 17.828125 0 "/></g></g></g><g fill="#000000" fill-opacity="1"><g transform="translate(417.172102, 213.749983)"><g><path d="M 25.390625 -63.1875 L 1.21875 -63.1875 L 1.21875 -71.78125 L 59.515625 -71.78125 L 59.515625 -63.1875 L 35.109375 -63.1875 L 35.109375 0 L 25.390625 0 Z M 25.390625 -63.1875 "/></g></g></g><g fill="#000000" fill-opacity="1"><g transform="translate(533.411793, 213.749983)"><g><path d="M 61.078125 0 L 8.109375 0 L 8.109375 -71.78125 L 60.40625 -71.78125 L 60.40625 -63.1875 L 17.828125 -63.1875 L 17.828125 -41.21875 L 57.078125 -41.21875 L 57.078125 -32.625 L 17.828125 -32.625 L 17.828125 -8.59375 L 61.078125 -8.59375 Z M 61.078125 0 "/></g></g></g><g fill="#000000" fill-opacity="1"><g transform="translate(653.899347, 213.749983)"><g><path d="M 17.828125 -39.109375 L 40.28125 -39.109375 C 45.488281 -39.109375 49.222656 -40.175781 51.484375 -42.3125 C 53.753906 -44.445312 54.890625 -47.515625 54.890625 -51.515625 C 54.890625 -55.160156 53.910156 -58.066406 51.953125 -60.234375 C 50.003906 -62.398438 46.648438 -63.484375 41.890625 -63.484375 L 17.828125 -63.484375 Z M 17.828125 0 L 8.109375 0 L 8.109375 -71.78125 L 41.3125 -71.78125 C 49.019531 -71.78125 54.859375 -70.132812 58.828125 -66.84375 C 62.804688 -63.5625 64.796875 -58.773438 64.796875 -52.484375 C 64.796875 -48.359375 64 -44.910156 62.40625 -42.140625 C 60.8125 -39.367188 58.304688 -37.085938 54.890625 -35.296875 C 57.816406 -34.222656 59.929688 -32.71875 61.234375 -30.78125 C 62.535156 -28.84375 63.285156 -25.84375 63.484375 -21.78125 L 64.109375 -8.40625 C 64.171875 -6.1875 64.519531 -4.628906 65.15625 -3.734375 C 65.789062 -2.835938 66.679688 -2.128906 67.828125 -1.609375 L 67.828125 0 L 55.8125 0 C 55.195312 -1.789062 54.757812 -4.507812 54.5 -8.15625 C 54.238281 -11.800781 54.109375 -15.085938 54.109375 -18.015625 C 54.109375 -19.484375 53.976562 -20.984375 53.71875 -22.515625 C 53.457031 -24.046875 52.882812 -25.425781 52 -26.65625 C 51.125 -27.894531 49.835938 -28.894531 48.140625 -29.65625 C 46.453125 -30.425781 44.175781 -30.8125 41.3125 -30.8125 L 17.828125 -30.8125 Z M 17.828125 0 "/></g></g></g></svg>